<?xml version="1.0" encoding="utf-8"?>
<!-- Generator: Adobe Illustrator 16.0.0, SVG Export Plug-In . SVG Version: 6.00 Build 0)  -->
<!DOCTYPE svg PUBLIC "-//W3C//DTD SVG 1.1 Tiny//EN" "http://www.w3.org/Graphics/SVG/1.1/DTD/svg11-tiny.dtd">
<svg version="1.1" baseProfile="tiny" id="Layer_1" xmlns="http://www.w3.org/2000/svg" xmlns:xlink="http://www.w3.org/1999/xlink"
	 x="0px" y="0px" width="24px" height="24px" viewBox="0 0 24 24" xml:space="preserve">
<g>
	<path d="M23.368,10.844C23.3,5.201,18.688,0.631,13.028,0.631c-0.221,0-0.4,0.179-0.4,0.4v9.94c0,0.221,0.179,0.4,0.4,0.4h9.94
		c0.007,0,0.013-0.001,0.02,0c0.221,0,0.4-0.179,0.4-0.4C23.389,10.927,23.381,10.884,23.368,10.844z M13.428,10.572V1.439
		c4.943,0.205,8.928,4.189,9.132,9.132H13.428z"/>
	<path d="M20.912,12.628h-9.541V3.088c0-0.221-0.179-0.4-0.4-0.4c-5.702,0-10.34,4.639-10.34,10.34s4.639,10.34,10.34,10.34
		s10.34-4.639,10.34-10.34C21.312,12.808,21.133,12.628,20.912,12.628z M10.972,22.569c-5.261,0-9.541-4.28-9.541-9.541
		c0-5.127,4.064-9.322,9.141-9.532v9.532c0,0.221,0.179,0.4,0.4,0.4h9.532C20.293,18.504,16.099,22.569,10.972,22.569z"/>
</g>
</svg>
